<svg width="39" height="36" viewBox="0 0 39 36" fill="none" xmlns="http://www.w3.org/2000/svg">
<path d="M28.84 9.752C25.672 7.96 22.376 6.872 18.952 6.488V35H12.712V6.488C9.256 6.872 5.944 7.96 2.776 9.752L0.616 4.952C2.856 3.608 5.256 2.6 7.816 1.928C10.408 1.256 13.064 0.919998 15.784 0.919998C18.504 0.919998 21.16 1.256 23.752 1.928C26.344 2.6 28.76 3.608 31 4.952L28.84 9.752Z" fill="black"/>
<path d="M34.9341 35.336C33.8461 35.336 32.9181 34.968 32.1501 34.232C31.3821 33.464 30.9981 32.504 30.9981 31.352C30.9981 30.168 31.3661 29.208 32.1021 28.472C32.8701 27.736 33.8141 27.368 34.9341 27.368C36.0541 27.368 36.9821 27.736 37.7181 28.472C38.4861 29.208 38.8701 30.168 38.8701 31.352C38.8701 32.504 38.4861 33.464 37.7181 34.232C36.9501 34.968 36.0221 35.336 34.9341 35.336Z" fill="#FF6348"/>
</svg>
