<svg width="200" height="100" viewBox="0 0 200 100" fill="none" xmlns="http://www.w3.org/2000/svg">
<rect width="200" height="100" fill="white"/>
<path d="M49.84 41.752C46.672 39.96 43.376 38.872 39.952 38.488V67H33.712V38.488C30.256 38.872 26.944 39.96 23.776 41.752L21.616 36.952C23.856 35.608 26.256 34.6 28.816 33.928C31.408 33.256 34.064 32.92 36.784 32.92C39.504 32.92 42.16 33.256 44.752 33.928C47.344 34.6 49.76 35.608 52 36.952L49.84 41.752ZM77.992 41.368V67H72.28V63.688C71.288 64.904 70.056 65.816 68.584 66.424C67.144 67.032 65.544 67.336 63.784 67.336C61.288 67.336 59.048 66.792 57.064 65.704C55.112 64.616 53.576 63.08 52.456 61.096C51.368 59.112 50.824 56.808 50.824 54.184C50.824 51.56 51.368 49.272 52.456 47.32C53.576 45.336 55.112 43.8 57.064 42.712C59.048 41.624 61.288 41.08 63.784 41.08C65.448 41.08 66.968 41.368 68.344 41.944C69.752 42.52 70.968 43.368 71.992 44.488V41.368H77.992ZM64.456 62.2C66.664 62.2 68.488 61.464 69.928 59.992C71.368 58.52 72.088 56.584 72.088 54.184C72.088 51.784 71.368 49.848 69.928 48.376C68.488 46.904 66.664 46.168 64.456 46.168C62.248 46.168 60.424 46.904 58.984 48.376C57.576 49.848 56.872 51.784 56.872 54.184C56.872 56.584 57.576 58.52 58.984 59.992C60.424 61.464 62.248 62.2 64.456 62.2ZM118.194 41.08C121.426 41.08 123.986 42.024 125.874 43.912C127.762 45.768 128.706 48.568 128.706 52.312V67H122.706V53.08C122.706 50.84 122.21 49.16 121.218 48.04C120.226 46.888 118.802 46.312 116.946 46.312C114.93 46.312 113.314 46.984 112.098 48.328C110.882 49.64 110.274 51.528 110.274 53.992V67H104.274V53.08C104.274 50.84 103.778 49.16 102.786 48.04C101.794 46.888 100.37 46.312 98.5143 46.312C96.4663 46.312 94.8343 46.968 93.6183 48.28C92.4343 49.592 91.8423 51.496 91.8423 53.992V67H85.8423V41.368H91.5543V44.632C92.5143 43.48 93.7143 42.6 95.1543 41.992C96.5943 41.384 98.1943 41.08 99.9543 41.08C101.874 41.08 103.57 41.448 105.042 42.184C106.546 42.888 107.73 43.944 108.594 45.352C109.65 44.008 111.01 42.968 112.674 42.232C114.338 41.464 116.178 41.08 118.194 41.08ZM161.664 41.368V67H155.952V63.688C154.96 64.904 153.728 65.816 152.256 66.424C150.816 67.032 149.216 67.336 147.456 67.336C144.96 67.336 142.72 66.792 140.736 65.704C138.784 64.616 137.248 63.08 136.128 61.096C135.04 59.112 134.496 56.808 134.496 54.184C134.496 51.56 135.04 49.272 136.128 47.32C137.248 45.336 138.784 43.8 140.736 42.712C142.72 41.624 144.96 41.08 147.456 41.08C149.12 41.08 150.64 41.368 152.016 41.944C153.424 42.52 154.64 43.368 155.664 44.488V41.368H161.664ZM148.128 62.2C150.336 62.2 152.16 61.464 153.6 59.992C155.04 58.52 155.76 56.584 155.76 54.184C155.76 51.784 155.04 49.848 153.6 48.376C152.16 46.904 150.336 46.168 148.128 46.168C145.92 46.168 144.096 46.904 142.656 48.376C141.248 49.848 140.544 51.784 140.544 54.184C140.544 56.584 141.248 58.52 142.656 59.992C144.096 61.464 145.92 62.2 148.128 62.2Z" fill="black"/>
<path d="M171.434 67.336C170.346 67.336 169.418 66.968 168.65 66.232C167.882 65.464 167.498 64.504 167.498 63.352C167.498 62.168 167.866 61.208 168.602 60.472C169.37 59.736 170.314 59.368 171.434 59.368C172.554 59.368 173.482 59.736 174.218 60.472C174.986 61.208 175.37 62.168 175.37 63.352C175.37 64.504 174.986 65.464 174.218 66.232C173.45 66.968 172.522 67.336 171.434 67.336Z" fill="#FF6348"/>
</svg>
